<svg id="Livello_1" data-name="Livello 1" xmlns="http://www.w3.org/2000/svg" viewBox="0 0 69.92 99.02"><defs><style>.cls-1{fill:none;stroke:#fff;stroke-miterlimit:10;}</style></defs><path class="cls-1" d="M34.08,98.1S15.48,78.8,16.56,54.71s27-50.13,27-50.13,11,25.22,6.38,41S31.75,69.79,34.08,98.1Z"/><path class="cls-1" d="M42.38,8.53s-26.61,45.73-12,79.41"/><path class="cls-1" d="M56.34,51.71s5.57,8.53,3.46,17.44S46.16,85.94,46.16,85.94s-2.32-10.2.53-15.76S55.2,62.44,56.34,51.71Z"/><path class="cls-1" d="M46.89,84.55S60.06,69.37,57,55.77"/><path class="cls-1" d="M21.85,3.8s3.48,9.57-.62,17.76S4.11,34.78,4.11,34.78s.08-10.45,4.13-15.21S18.29,14,21.85,3.8Z"/><path class="cls-1" d="M5.14,33.6S21.43,21.84,21.57,7.9"/></svg>