<svg id="Livello_1" data-name="Livello 1" xmlns="http://www.w3.org/2000/svg" viewBox="0 0 511.28 144.57"><defs><style>.cls-1{fill:#fff;}</style></defs><path class="cls-1" d="M62.34,52.24A32.68,32.68,0,0,0,57.57,52a27.12,27.12,0,0,0-11.88,2.39,33.07,33.07,0,0,0-9.94,7,32,32,0,0,0-9.29,22.91c0,.68,0,1.34.06,2A43.15,43.15,0,0,0,34.6,97.76a28.09,28.09,0,0,1,.18-27.48,29,29,0,0,1,9.75-10.13,24.07,24.07,0,0,1,13-3.81,27.24,27.24,0,0,1,12.71,3c.41.21.81.44,1.2.68-.45-.53-.92-1.06-1.42-1.58A38.11,38.11,0,0,0,62.34,52.24Z"/><path class="cls-1" d="M27.18,91.21a30.49,30.49,0,0,0,1.73,5.6,31.28,31.28,0,0,0,6.84,10.26A33.6,33.6,0,0,0,45.69,114a30,30,0,0,0,11.88,2.65,32.94,32.94,0,0,0,14.91-3.75,27.61,27.61,0,0,0,11.16-11L79.9,99.59a24.51,24.51,0,0,1-9.62,9.61,26.69,26.69,0,0,1-12.71,3,23.79,23.79,0,0,1-13-3.87,29.35,29.35,0,0,1-5.14-4.18A42.12,42.12,0,0,1,27.18,91.21Z"/><path class="cls-1" d="M83.64,66.54a27.45,27.45,0,0,0-11.16-11.1,31,31,0,0,0-5-2.08,40.94,40.94,0,0,1,4,3.67,36.29,36.29,0,0,1,6.1,8.48,29.83,29.83,0,0,1,2.29,3.35Z"/><path class="cls-1" d="M144.84,84.74a31.89,31.89,0,0,1-2.91,13.62,24.56,24.56,0,0,1-8.26,10,22.12,22.12,0,0,1-13,3.74,23.47,23.47,0,0,1-8-1.33,39.19,39.19,0,0,1-12.81-3.72,25.74,25.74,0,0,0,20.83,9.31,28,28,0,0,0,15.16-4,27,27,0,0,0,9.94-11.11,35.21,35.21,0,0,0,3.55-16V53.11h-4.51Z"/><path class="cls-1" d="M99.85,98.36A32.44,32.44,0,0,1,97.07,85V53.11H92.55v32a35.79,35.79,0,0,0,3.49,16c.3.6.61,1.19.94,1.77a28.83,28.83,0,0,0,10,4.73A23.5,23.5,0,0,1,99.85,98.36Z"/><path class="cls-1" d="M195.83,54.92a21.39,21.39,0,0,0-4.91-1.74,24.47,24.47,0,0,0-5.42-.58,21.13,21.13,0,0,0-11.23,2.9,18.73,18.73,0,0,0-7.3,8.26,26.73,26.73,0,0,0-2.24,8c-.36,5.16-.11,13.94,4.25,21.93V76.35q0-8.64,4.51-14.07a15,15,0,0,1,12.14-5.42,20.09,20.09,0,0,1,5.42.71,17,17,0,0,1,4.78,2.13Z"/><path class="cls-1" d="M164.46,115.34H169V97.51A34.1,34.1,0,0,1,164.46,88Z"/><path class="cls-1" d="M254.82,90.94V98.1a31.43,31.43,0,0,0,2.71-13Z"/><path class="cls-1" d="M243.27,56.08c-.48-.28-1-.53-1.46-.78a66,66,0,0,1,9.39,15.37,26.56,26.56,0,0,1,3.49,13.43A27.17,27.17,0,0,1,251,98.17a28.4,28.4,0,0,1-10,10.07,26.8,26.8,0,0,1-14,3.74,28.42,28.42,0,0,1-6.38-.72A47.13,47.13,0,0,1,204.92,108a31.3,31.3,0,0,0,21.63,8.38,30.17,30.17,0,0,0,15.88-4.2,30.63,30.63,0,0,0,11-11.36c.5-.88.94-1.79,1.35-2.71V90.94l2.71-5.81a31.43,31.43,0,0,1-2.71,13v17.24h4.39V84a32.19,32.19,0,0,0-15.94-27.89Z"/><path class="cls-1" d="M213,108.24A27.63,27.63,0,0,1,199.31,84.1,26.9,26.9,0,0,1,203,70.22a28.37,28.37,0,0,1,10-10.07,27.53,27.53,0,0,1,27.95,0A29.29,29.29,0,0,1,244.83,63a84.4,84.4,0,0,0-7.09-9.41,33,33,0,0,0-10.8-1.74,31.33,31.33,0,0,0-16.46,4.39A32.47,32.47,0,0,0,198.92,68a31.38,31.38,0,0,0-4.26,16,32.61,32.61,0,0,0,4.2,16.33,33.72,33.72,0,0,0,2.68,4,47.83,47.83,0,0,0,11.75,4.09Z"/><path class="cls-1" d="M375.39,40.72a41.78,41.78,0,0,0-11.05-8.1,88.74,88.74,0,0,1,9.52,18.28c.41,1.07.77,2.13,1.11,3.16a35.54,35.54,0,0,1,1.84,3.83,36.87,36.87,0,0,1,2.71,14.2,37.69,37.69,0,0,1-2.71,14.39A35.81,35.81,0,0,1,358,105.91a33,33,0,0,1-13.62,2.84,34.41,34.41,0,0,1-9.91-1.42q-11.79-1.45-25.24-8.29a42.53,42.53,0,0,0,4.1,4.81,43.63,43.63,0,0,0,62,0,43.78,43.78,0,0,0,9.36-14.2A45.57,45.57,0,0,0,388,72.09a44.24,44.24,0,0,0-3.35-17.3A44.69,44.69,0,0,0,375.39,40.72Z"/><path class="cls-1" d="M319.43,98.1a35.77,35.77,0,0,1-7.55-11.62,37.69,37.69,0,0,1-2.71-14.39,36.87,36.87,0,0,1,2.71-14.2,36,36,0,0,1,7.55-11.55,34.91,34.91,0,0,1,11.23-7.75,34.17,34.17,0,0,1,13.75-2.78,33.63,33.63,0,0,1,13.68,2.78,35.1,35.1,0,0,1,11.17,7.75c.35.36.69.73,1,1.1A92.44,92.44,0,0,0,360.79,31a45.24,45.24,0,0,0-33.49.29,43,43,0,0,0-13.94,9.42,43.9,43.9,0,0,0-12.71,31.37A45.57,45.57,0,0,0,304,89.65a47.06,47.06,0,0,0,2.95,5.9,90,90,0,0,0,19.47,8.13A35.64,35.64,0,0,1,319.43,98.1Z"/><path class="cls-1" d="M401.73,105.53a5.63,5.63,0,0,0-3-.78,5.71,5.71,0,0,0-2.9.78,5.79,5.79,0,0,0-2.13,2,5.26,5.26,0,0,0-.78,2.9,6,6,0,0,0,.78,3,5.45,5.45,0,0,0,2.13,2.13,5.71,5.71,0,0,0,2.9.78,5.63,5.63,0,0,0,3-.78,5.72,5.72,0,0,0,2.07-2.13,6,6,0,0,0,.77-3,5.34,5.34,0,0,0-.77-2.9A6.1,6.1,0,0,0,401.73,105.53Z"/><path class="cls-1" d="M474.62,97.11a21.23,21.23,0,0,0,1.65-2.06,25.85,25.85,0,0,0,.2-3.21A20.93,20.93,0,0,0,474,81.19a20,20,0,0,0-6.45-6.78,35.16,35.16,0,0,0-8.91-4.06q-4.91-1.48-9.81-2.52-5.69-1.29-10.72-2.84a21.94,21.94,0,0,1-5.73-2.65,30.89,30.89,0,0,1-13.62-12.85c-.08.81-.14,1.62-.14,2.46a20.57,20.57,0,0,0,2.45,10.59,19.67,19.67,0,0,0,6.59,6.71,37.35,37.35,0,0,0,9,4.07q4.91,1.49,9.81,2.51,5.69,1.17,10.65,2.65a18.66,18.66,0,0,1,8,4.52q3,3,3,8.84a14.76,14.76,0,0,1-2.77,9,16.63,16.63,0,0,1-4.57,4.18A28.94,28.94,0,0,0,474.62,97.11Z"/><path class="cls-1" d="M474.41,45.5a26.16,26.16,0,0,0-11.3-12.91c-.87-.5-1.77-.94-2.67-1.36a36.86,36.86,0,0,1,7.62,17.62Z"/><path class="cls-1" d="M423,95.65l-6.07,3a26.48,26.48,0,0,0,11.88,13.11,36.12,36.12,0,0,0,10.77,3.87C428.75,109.68,423.55,97,423,95.65Z"/><path class="cls-1" d="M427.91,57.28a14.42,14.42,0,0,1-1-5.59,13.14,13.14,0,0,1,2.65-8.07,17.89,17.89,0,0,1,7-5.55,22.06,22.06,0,0,1,9.36-2,25.26,25.26,0,0,1,13.23,3.36,20.3,20.3,0,0,1,6.32,5.92,34.62,34.62,0,0,0-8.87-15.6,34.66,34.66,0,0,0-10.42-1.55,30.48,30.48,0,0,0-13.75,3.1,26,26,0,0,0-10,8.45,20.46,20.46,0,0,0-3.07,6.74A29.42,29.42,0,0,0,427.91,57.28Z"/><path class="cls-1" d="M472.6,104.69a20.63,20.63,0,0,0,2.73-5.45c-5.07,5-13.26,8-19.45,8.8a52.16,52.16,0,0,1-8.58.45A28.7,28.7,0,0,1,432.9,105a22.28,22.28,0,0,1-4.51-3.39c3.43,5.46,9.38,12.54,18,14.54.35.09.71.14,1.07.21a34.53,34.53,0,0,0,14.67-3.1A26.1,26.1,0,0,0,472.6,104.69Z"/><path class="cls-1" d="M499.84,107.53a6.1,6.1,0,0,0-2.07-2,5.63,5.63,0,0,0-3-.78,5.71,5.71,0,0,0-2.9.78,5.94,5.94,0,0,0-2.13,2,5.26,5.26,0,0,0-.77,2.9,5.94,5.94,0,0,0,.77,3,5.59,5.59,0,0,0,2.13,2.13,5.71,5.71,0,0,0,2.9.78,5.63,5.63,0,0,0,3-.78,5.72,5.72,0,0,0,2.07-2.13,5.94,5.94,0,0,0,.77-3A5.26,5.26,0,0,0,499.84,107.53Z"/></svg>