<svg id="Livello_1" data-name="Livello 1" xmlns="http://www.w3.org/2000/svg" viewBox="0 0 69.92 99.02"><defs><style>.cls-1{fill:none;stroke:#fff;stroke-miterlimit:10;}</style></defs><circle class="cls-1" cx="14.8" cy="19.29" r="4.95"/><circle class="cls-1" cx="3.56" cy="41.42" r="2.47"/><circle class="cls-1" cx="7.38" cy="50.65" r="2.47"/><circle class="cls-1" cx="17.3" cy="67.23" r="4.95"/><circle class="cls-1" cx="56.08" cy="86.82" r="6.5"/><circle class="cls-1" cx="64.34" cy="67.23" r="3.25"/><circle class="cls-1" cx="59.33" cy="55.1" r="3.25"/><circle class="cls-1" cx="56.08" cy="25.79" r="6.5"/><path class="cls-1" d="M5.34,54.34C-4.33,72.23,6.83,94.47,27,97a41.59,41.59,0,0,0,5.1.31H33C53.47,96.93,67,75.77,59,56.87L38.91,9.44A5,5,0,0,0,29.82,9Z"/><path class="cls-1" d="M10.45,56.85c-7.78,14.4,1.2,32.31,17.44,34.36a31.69,31.69,0,0,0,4.11.26h.68a23.42,23.42,0,0,0,21-32.58L37.48,20.7a4.06,4.06,0,0,0-7.32-.35Z"/></svg>