<svg id="Livello_1" data-name="Livello 1" xmlns="http://www.w3.org/2000/svg" viewBox="0 0 202.57 150.5"><defs><style>.cls-1{fill:#1da876;}.cls-2{fill:#fff;}</style></defs><rect class="cls-1" x="13.06" y="13.06" width="173.5" height="124.39"/><circle class="cls-1" cx="38.27" cy="137.45" r="13.06"/><circle class="cls-1" cx="63.47" cy="137.45" r="13.06"/><circle class="cls-1" cx="88.68" cy="137.45" r="13.06"/><circle class="cls-1" cx="113.89" cy="137.45" r="13.06"/><circle class="cls-1" cx="139.1" cy="137.45" r="13.06"/><circle class="cls-1" cx="164.3" cy="137.45" r="13.06"/><circle class="cls-1" cx="189.51" cy="137.45" r="13.06"/><circle class="cls-1" cx="189.51" cy="112.57" r="13.06"/><circle class="cls-1" cx="189.51" cy="87.69" r="13.06"/><circle class="cls-1" cx="189.51" cy="62.81" r="13.06"/><circle class="cls-1" cx="189.51" cy="37.94" r="13.06"/><circle class="cls-1" cx="189.51" cy="13.06" r="13.06"/><circle class="cls-1" cx="164.3" cy="13.06" r="13.06"/><circle class="cls-1" cx="139.1" cy="13.06" r="13.06"/><circle class="cls-1" cx="113.89" cy="13.06" r="13.06"/><circle class="cls-1" cx="88.68" cy="13.06" r="13.06"/><circle class="cls-1" cx="63.47" cy="13.06" r="13.06"/><circle class="cls-1" cx="38.27" cy="13.06" r="13.06"/><circle class="cls-1" cx="13.06" cy="13.06" r="13.06"/><circle class="cls-1" cx="13.06" cy="37.94" r="13.06"/><circle class="cls-1" cx="13.06" cy="62.81" r="13.06"/><circle class="cls-1" cx="13.06" cy="87.69" r="13.06"/><circle class="cls-1" cx="13.06" cy="112.57" r="13.06"/><circle class="cls-1" cx="13.06" cy="137.45" r="13.06"/><rect class="cls-2" x="65.23" y="35.93" width="83.01" height="16.83" rx="8.42"/><rect class="cls-2" x="65.23" y="63.73" width="83.01" height="16.83" rx="8.42"/><rect class="cls-2" x="65.23" y="91.53" width="83.01" height="16.83" rx="8.42"/></svg>